<?xml version="1.0" standalone="no"?>
<!DOCTYPE svg PUBLIC "-//W3C//DTD SVG 20010904//EN"
 "http://www.w3.org/TR/2001/REC-SVG-20010904/DTD/svg10.dtd">
<svg version="1.0" xmlns="http://www.w3.org/2000/svg"
 width="500.000000pt" height="500.000000pt" viewBox="0 0 500.000000 500.000000"
 preserveAspectRatio="xMidYMid meet">

<g transform="translate(0.000000,500.000000) scale(0.100000,-0.100000)"
fill="#000000" stroke="none">
<path d="M1429 3504 c-91 -45 -171 -89 -177 -97 -15 -18 -122 -333 -122 -359
0 -23 153 -330 173 -346 8 -7 32 -18 53 -25 25 -9 40 -21 42 -33 2 -11 -13
-85 -32 -164 -18 -80 -51 -217 -71 -305 -21 -88 -48 -203 -60 -255 -13 -52
-22 -96 -20 -98 3 -3 82 7 720 88 220 28 507 65 638 81 132 17 241 28 245 25
3 -3 7 -132 10 -285 l5 -280 51 -5 c28 -3 134 -10 236 -16 102 -6 202 -12 223
-15 l39 -3 -20 21 c-92 100 -212 243 -210 249 2 4 71 56 153 116 526 380 473
338 479 385 2 23 12 157 21 297 9 140 20 309 25 375 5 66 14 192 20 280 5 88
13 191 16 228 5 63 4 68 -13 63 -10 -3 -63 -10 -118 -15 -55 -6 -157 -17 -226
-26 -70 -8 -166 -19 -215 -25 -49 -5 -188 -21 -309 -36 -121 -14 -258 -29
-305 -34 -47 -5 -143 -17 -215 -25 -240 -29 -330 -38 -355 -39 -21 -1 -32 13
-81 109 -31 61 -64 116 -72 124 -8 8 -46 24 -84 36 -37 12 -116 38 -174 57
l-106 35 -164 -83z m221 16 c0 -13 -11 -13 -30 0 -12 8 -11 10 8 10 12 0 22
-4 22 -10z m-70 -9 c0 -13 -28 -22 -35 -11 -3 4 1 11 7 13 20 8 28 8 28 -2z
m130 -12 c0 -11 -3 -11 -24 -3 -23 9 -20 23 4 17 11 -3 20 -9 20 -14z m-195
-19 c-3 -5 -13 -10 -21 -10 -8 0 -12 5 -9 10 3 6 13 10 21 10 8 0 12 -4 9 -10z
m250 0 c3 -5 -1 -10 -9 -10 -8 0 -18 5 -21 10 -3 6 1 10 9 10 8 0 18 -4 21
-10z m-315 -30 c-24 -15 -37 -11 -16 5 11 8 22 12 25 9 3 -3 -1 -9 -9 -14z
m370 10 c8 -5 12 -11 9 -14 -3 -3 -14 1 -25 9 -21 16 -8 20 16 5z m-425 -30
c-3 -5 -14 -10 -23 -10 -15 0 -15 2 -2 10 20 13 33 13 25 0z m490 0 c8 -13 -5
-13 -25 0 -13 8 -13 10 2 10 9 0 20 -4 23 -10z m-555 -35 c-7 -9 -15 -13 -18
-10 -3 2 1 11 8 20 7 9 15 13 18 10 3 -2 -1 -11 -8 -20z m620 -7 c0 -6 -7 -5
-15 2 -8 7 -15 17 -15 22 0 6 7 5 15 -2 8 -7 15 -17 15 -22z m-653 -43 c-4 -8
-11 -15 -17 -15 -7 0 -7 6 0 21 13 23 26 19 17 -6z m677 -1 c10 -25 -1 -29
-14 -5 -6 12 -7 21 -1 21 5 0 12 -7 15 -16z m-524 -28 c0 -14 -29 -31 -38 -21
-6 6 18 35 29 35 5 0 9 -6 9 -14z m380 -1 c7 -9 10 -18 7 -21 -10 -11 -37 5
-37 21 0 19 14 19 30 0z m-432 -18 c-4 -20 -1 -23 25 -19 l29 5 -36 -50 c-20
-28 -33 -53 -29 -56 3 -4 2 -12 -3 -19 -15 -20 -18 -127 -4 -143 6 -8 9 -19 5
-25 -3 -5 -1 -10 4 -10 6 0 11 -7 11 -15 0 -8 4 -15 9 -15 5 0 12 -8 15 -18 3
-10 19 -26 36 -35 16 -10 30 -27 30 -37 0 -25 -27 -51 -45 -44 -22 9 -18 24 6
24 12 0 19 5 17 13 -3 6 -11 12 -18 12 -7 0 -16 9 -20 19 -4 14 -9 16 -14 8
-8 -14 -52 -16 -60 -3 -9 13 16 20 36 10 13 -7 15 -5 11 11 -4 15 -11 18 -33
14 -16 -4 -31 -1 -35 6 -11 18 4 25 25 12 17 -11 20 -10 20 8 0 16 -5 19 -22
15 -28 -6 -52 8 -46 26 3 8 -2 20 -10 28 -18 18 1 29 21 12 9 -7 16 -4 26 11
9 15 9 18 0 13 -9 -6 -10 -1 -7 19 4 20 1 26 -13 26 -28 0 -31 15 -18 80 12
60 26 77 36 41 3 -12 11 -17 20 -14 11 4 10 9 -7 25 -12 11 -19 27 -16 35 3 8
6 17 6 19 0 3 5 2 10 -1 6 -3 10 -14 10 -25 0 -13 5 -17 20 -13 19 5 19 6 -2
23 -13 10 -19 23 -15 33 10 26 30 20 25 -6z m472 -2 c0 -14 -4 -25 -10 -25 -5
0 -10 11 -10 25 0 14 5 25 10 25 6 0 10 -11 10 -25z m-609 -28 c-8 -8 -11 -7
-11 4 0 20 13 34 18 19 3 -7 -1 -17 -7 -23z m739 5 c0 -15 -2 -15 -10 -2 -13
20 -13 33 0 25 6 -3 10 -14 10 -23z m-144 -19 c10 -16 19 -31 19 -35 0 -4 6
-13 13 -19 10 -10 12 -9 12 8 0 12 5 25 11 28 7 5 9 -3 7 -21 -2 -20 -10 -30
-26 -34 -22 -5 -22 -5 -3 -17 16 -10 20 -9 24 8 6 21 27 26 27 6 0 -19 -21
-37 -44 -37 -19 0 -19 -1 -2 -13 10 -7 17 -20 16 -28 -5 -34 0 -43 14 -23 16
21 32 14 23 -11 -4 -8 -16 -15 -27 -15 -13 0 -20 -7 -20 -20 0 -11 -4 -20 -9
-20 -5 0 -7 -9 -4 -21 4 -14 9 -17 16 -10 6 6 17 11 25 11 12 0 12 -3 1 -16
-7 -9 -22 -14 -36 -11 -17 3 -23 0 -23 -15 0 -15 3 -17 19 -8 25 13 38 -5 14
-19 -11 -5 -24 -6 -34 0 -13 6 -18 4 -22 -12 -3 -12 -10 -18 -15 -15 -5 3 -12
-3 -15 -13 -3 -14 0 -17 14 -14 10 3 17 10 16 16 -1 6 8 13 21 15 28 4 28 -1
-2 -32 -28 -31 -40 -32 -59 -6 -14 20 -15 20 -20 1 -3 -13 1 -21 15 -24 11 -3
17 -10 13 -16 -9 -15 -21 -14 -40 6 -14 14 -18 14 -26 2 -6 -10 -3 -15 11 -17
26 -4 26 -22 0 -22 -12 0 -24 9 -28 21 -7 18 -10 19 -20 6 -10 -12 -9 -16 8
-20 22 -6 28 -27 6 -27 -19 0 -38 26 -34 47 2 10 19 25 38 34 50 24 97 72 123
127 37 78 24 197 -30 270 -22 30 -23 32 -5 32 11 0 28 -12 38 -27z m44 2 c0
-14 -4 -25 -10 -25 -5 0 -10 11 -10 25 0 14 5 25 10 25 6 0 10 -11 10 -25z
m-359 -63 c17 3 34 -1 41 -9 9 -11 14 -11 32 4 20 17 20 17 4 -1 -15 -17 -15
-21 -1 -45 14 -24 14 -24 -1 -7 -15 19 -16 19 -38 0 -12 -10 -19 -14 -15 -8 4
6 -13 10 -48 10 -46 -1 -59 3 -82 27 l-28 27 42 0 c38 0 42 -3 46 -27 2 -16 5
-1 7 32 2 42 4 50 7 26 4 -30 7 -33 34 -29z m-291 41 c0 -5 -5 -15 -10 -23 -8
-12 -10 -11 -10 8 0 12 5 22 10 22 6 0 10 -3 10 -7z m774 -9 c10 -25 -1 -29
-14 -5 -6 12 -7 21 -1 21 5 0 12 -7 15 -16z m-269 -14 c3 -6 -1 -7 -9 -4 -18
7 -21 14 -7 14 6 0 13 -4 16 -10z m-108 -62 c-2 -13 -4 -5 -4 17 -1 22 1 32 4
23 2 -10 2 -28 0 -40z m168 13 c-38 -36 -90 -50 -99 -25 -5 14 -4 15 8 5 20
-17 36 -6 36 25 0 22 4 24 42 24 l43 0 -30 -29z m-595 -2 c-7 -11 -14 -19 -16
-16 -7 7 7 37 17 37 6 0 5 -9 -1 -21z m833 1 c3 -11 1 -20 -4 -20 -5 0 -9 2
-9 4 0 2 -3 11 -6 20 -3 9 -2 16 4 16 5 0 12 -9 15 -20z m-103 -28 c0 -5 -7
-17 -15 -28 -14 -19 -14 -19 -15 2 0 11 3 24 7 27 9 10 23 9 23 -1z m-754 -49
c-11 -11 -19 6 -11 24 8 17 8 17 12 0 3 -10 2 -21 -1 -24z m884 11 c0 -8 -4
-12 -10 -9 -5 3 -10 13 -10 21 0 8 5 12 10 9 6 -3 10 -13 10 -21z m-750 -29
c0 -8 -4 -15 -8 -15 -13 0 -32 23 -32 37 0 11 5 11 20 3 11 -6 20 -17 20 -25z
m428 -18 c3 -13 -3 -17 -27 -17 -20 0 -31 5 -31 14 0 29 53 32 58 3z m45 10
c4 3 7 -1 7 -10 0 -10 -8 -15 -20 -14 -12 1 -20 8 -20 20 0 15 3 17 13 8 8 -6
17 -8 20 -4z m-593 -37 c0 -13 -1 -13 -10 0 -5 8 -10 22 -10 30 0 13 1 13 10
0 5 -8 10 -22 10 -30z m352 18 c-7 -7 -12 -8 -12 -2 0 14 12 26 19 19 2 -3 -1
-11 -7 -17z m88 6 c0 -13 -3 -14 -14 -5 -11 9 -15 9 -19 -1 -4 -8 -6 -7 -6 5
-1 11 6 17 19 17 12 0 20 -7 20 -16z m27 -6 c-3 -8 -6 -5 -6 6 -1 11 2 17 5
13 3 -3 4 -12 1 -19z m386 2 c-3 -11 -9 -20 -14 -20 -11 0 -11 3 -3 24 9 23
23 20 17 -4z m-113 -8 c0 -10 -22 -32 -32 -32 -13 0 -9 28 5 33 19 8 27 8 27
-1z m-489 -19 c13 -16 12 -17 -3 -4 -10 7 -18 15 -18 17 0 8 8 3 21 -13z m570
-46 c-8 -8 -11 -7 -11 4 0 20 13 34 18 19 3 -7 -1 -17 -7 -23z m-797 8 c3 -8
1 -15 -3 -15 -5 0 -11 7 -15 15 -3 8 -1 15 3 15 5 0 11 -7 15 -15z m2154 -1
c20 -14 22 -23 22 -107 0 -134 -3 -137 -139 -137 -70 0 -111 4 -119 12 -13 13
-17 205 -4 224 12 18 33 22 127 23 67 1 96 -3 113 -15z m-1372 -50 c-3 -9 -6
-18 -6 -20 0 -2 -4 -4 -9 -4 -5 0 -7 9 -4 20 3 11 10 20 15 20 6 0 7 -7 4 -16z
m-756 -22 c0 -15 -2 -15 -10 -2 -13 20 -13 33 0 25 6 -3 10 -14 10 -23z m726
-48 c-4 -9 -9 -15 -11 -12 -3 3 -3 13 1 22 4 9 9 15 11 12 3 -3 3 -13 -1 -22z
m-696 -17 c0 -5 -4 -5 -10 -2 -5 3 -10 14 -10 23 0 15 2 15 10 2 5 -8 10 -19
10 -23z m145 24 c3 -5 1 -12 -4 -15 -12 -8 -41 3 -41 15 0 12 37 12 45 0z
m131 -32 c9 -16 -4 -23 -19 -11 -10 8 -16 6 -25 -9 -7 -10 -21 -19 -32 -19
-25 0 -26 17 -1 25 13 4 17 12 13 30 -4 24 -4 24 27 9 17 -8 33 -20 37 -25z
m82 -26 c5 -17 -26 -29 -40 -15 -6 6 -7 15 -3 22 9 14 37 9 43 -7z m-334 -9
c9 -24 7 -28 -9 -14 -17 14 -20 30 -6 30 5 0 12 -7 15 -16z m650 1 c-4 -8 -10
-15 -15 -15 -4 0 -6 7 -3 15 4 8 10 15 15 15 4 0 6 -7 3 -15z m-404 -4 c0 -12
-29 -23 -41 -15 -5 3 -7 10 -4 15 8 12 45 12 45 0z m350 -41 c-8 -5 -17 -7
-19 -4 -3 3 1 9 9 14 8 5 17 7 19 4 3 -3 -1 -9 -9 -14z m-545 0 c8 -13 -5 -13
-25 0 -13 8 -13 10 2 10 9 0 20 -4 23 -10z m1360 -120 l0 -115 -117 -3 -118
-3 0 114 c0 63 3 117 7 121 4 3 57 5 117 4 l111 -3 0 -115z m-1305 100 c8 -5
12 -11 9 -14 -3 -3 -14 1 -25 9 -21 16 -8 20 16 5z m445 0 c-3 -5 -16 -10 -28
-10 -18 0 -19 2 -7 10 20 13 43 13 35 0z m-375 -30 c0 -13 -11 -13 -30 0 -12
8 -11 10 8 10 12 0 22 -4 22 -10z m300 0 c-20 -13 -33 -13 -25 0 3 6 14 10 23
10 15 0 15 -2 2 -10z m-230 -26 c0 -2 -9 -4 -20 -4 -11 0 -20 4 -20 9 0 5 9 7
20 4 11 -3 20 -7 20 -9z m180 7 c0 -5 -9 -11 -20 -14 -22 -6 -28 8 -7 16 19 8
27 8 27 -2z m-125 -31 c8 -13 -5 -13 -25 0 -13 8 -13 10 2 10 9 0 20 -4 23
-10z m60 0 c-3 -5 -13 -10 -21 -10 -8 0 -12 5 -9 10 3 6 13 10 21 10 8 0 12
-4 9 -10z m403 -184 c2 -64 -1 -103 -9 -112 -15 -18 -189 -20 -207 -2 -17 17
-16 190 0 206 9 9 43 12 113 10 l100 -3 3 -99z"/>
<path d="M1329 3181 c7 -12 17 -18 27 -14 17 6 17 6 -14 22 -22 12 -23 11 -13
-8z"/>
<path d="M1323 3129 c6 -10 14 -15 17 -11 3 4 9 10 13 13 5 3 -2 8 -16 11 -22
4 -24 3 -14 -13z"/>
<path d="M1336 3001 c-3 -5 1 -14 9 -21 13 -10 15 -9 15 9 0 21 -14 28 -24 12z"/>
<path d="M1538 3182 c-16 -2 -28 -9 -28 -17 0 -17 68 -25 74 -9 7 18 -15 30
-46 26z"/>
<path d="M1725 3050 c-3 -5 1 -10 9 -10 9 0 16 5 16 10 0 6 -4 10 -9 10 -6 0
-13 -4 -16 -10z"/>
<path d="M3180 2855 l0 -85 90 0 90 0 0 85 0 85 -90 0 -90 0 0 -85z"/>
<path d="M1890 2455 l0 -75 80 0 80 0 0 75 0 75 -80 0 -80 0 0 -75z"/>
</g>
</svg>
